<?xml version="1.0"?>
<svg xmlns="http://www.w3.org/2000/svg" xmlns:xlink="http://www.w3.org/1999/xlink" version="1.1" viewBox="0 0 224 224" width="30px" height="30px"><g fill="none" fill-rule="nonzero" stroke="none" stroke-width="1" stroke-linecap="butt" stroke-linejoin="miter" stroke-miterlimit="10" stroke-dasharray="" stroke-dashoffset="0" font-family="none" font-weight="none" font-size="none" text-anchor="none" style="mix-blend-mode: normal"><path d="M0,224v-224h224v224z" fill="none"/><g fill="#ffffff"><path d="M179.2,29.86667h-134.4c-8.25067,0 -14.93333,6.68267 -14.93333,14.93333v134.4c0,8.25067 6.68267,14.93333 14.93333,14.93333h134.4c8.25067,0 14.93333,-6.68267 14.93333,-14.93333v-134.4c0,-8.25067 -6.68267,-14.93333 -14.93333,-14.93333zM112,152.17067c0,13.26827 -8.13867,20.70507 -21.65333,20.70507c-13.3504,0 -21.85493,-7.80267 -21.85493,-20.42133h14.46293c0.03733,4.6816 2.82987,7.6384 7.1456,7.6384c4.4352,0 6.81707,-2.79253 6.81707,-8.04907v-40.05867h15.08267zM152.9248,172.87573c-15.00053,0 -24.4384,-7.06347 -24.69227,-18.48747h14.3808c0.36587,4.31573 4.67413,7.06347 10.92373,7.06347c5.62987,0 9.4976,-2.7104 9.4976,-6.61547c0,-3.28533 -2.59093,-5.05493 -9.37067,-6.4064l-7.80267,-1.56053c-10.84907,-2.05333 -16.43413,-7.96693 -16.43413,-17.2928c0,-11.58827 9.28853,-19.18933 23.57973,-19.18933c13.888,0 23.4976,7.51893 23.744,18.48747h-13.92533c-0.32853,-4.1888 -4.31573,-7.10827 -9.62453,-7.10827c-5.29387,0 -8.7808,2.5088 -8.7808,6.4512c0,3.248 2.62827,5.13707 8.8704,6.36907l7.63093,1.4784c11.7152,2.2624 16.97173,7.55627 16.97173,16.96427c0.00747,12.37227 -9.43787,19.8464 -24.96853,19.8464z"/></g></g></svg>
