<?xml version="1.0"?>
<svg xmlns="http://www.w3.org/2000/svg" xmlns:xlink="http://www.w3.org/1999/xlink" version="1.1" viewBox="0 0 224 224" width="30px" height="30px"><g fill="none" fill-rule="nonzero" stroke="none" stroke-width="1" stroke-linecap="butt" stroke-linejoin="miter" stroke-miterlimit="10" stroke-dasharray="" stroke-dashoffset="0" font-family="none" font-weight="none" font-size="none" text-anchor="none" style="mix-blend-mode: normal"><path d="M0,224v-224h224v224z" fill="none"/><g fill="#ffffff"><path d="M189.8624,24.8864c-1.41867,-1.58293 -3.44213,-2.4864 -5.56267,-2.4864h-144.59947c-2.12053,0 -4.144,0.90347 -5.56267,2.4864c-1.41867,1.58293 -2.09067,3.696 -1.8592,5.8016l16.4416,148.01173c0.32853,3.00907 2.45653,5.52533 5.36853,6.35413l55.85067,15.95627c0.672,0.19413 1.3664,0.2912 2.05333,0.2912c0.68693,0 1.38133,-0.09707 2.05333,-0.2912l55.85067,-15.95627c2.912,-0.8288 5.03253,-3.34507 5.36853,-6.35413l16.44907,-148.01173c0.23893,-2.1056 -0.43307,-4.21867 -1.85173,-5.8016zM154.02987,77.87733h-66.67733l1.58293,18.98027h63.48907l-4.76373,56.07467l-35.6384,11.3344l-0.35093,-0.112l-35.24267,-11.23733l-1.9264,-22.848h17.26293l0.75413,8.87787l19.6896,4.33813l19.34613,-4.3456l2.05333,-23.9904h-60.40533l-4.67413,-55.216h87.05387z"/></g></g></svg>
