<?xml version="1.0"?>
<svg xmlns="http://www.w3.org/2000/svg" xmlns:xlink="http://www.w3.org/1999/xlink" version="1.1" viewBox="0 0 224 224" width="30px" height="30px"><g fill="none" fill-rule="nonzero" stroke="none" stroke-width="1" stroke-linecap="butt" stroke-linejoin="miter" stroke-miterlimit="10" stroke-dasharray="" stroke-dashoffset="0" font-family="none" font-weight="none" font-size="none" text-anchor="none" style="mix-blend-mode: normal"><path d="M0,224v-224h224v224z" fill="none"/><g fill="#ffffff"><path d="M193.9875,22.32708c-0.27823,0.00879 -0.55574,0.03314 -0.83125,0.07292h-43.82292c-2.69275,-0.03808 -5.19741,1.37667 -6.55489,3.70252c-1.35749,2.32585 -1.35749,5.20245 0,7.5283c1.35749,2.32585 3.86215,3.7406 6.55489,3.70252h26.775l-76.85417,76.85417c-1.9506,1.87276 -2.73635,4.65373 -2.05422,7.27036c0.68213,2.61663 2.72556,4.66006 5.34219,5.34219c2.61663,0.68213 5.3976,-0.10362 7.27036,-2.05422l76.85417,-76.85416v26.775c-0.03808,2.69275 1.37667,5.19741 3.70252,6.55489c2.32585,1.35749 5.20245,1.35749 7.5283,0c2.32585,-1.35749 3.7406,-3.86215 3.70252,-6.55489v-43.85208c0.30098,-2.17587 -0.37131,-4.3739 -1.83796,-6.00913c-1.46665,-1.63523 -3.57887,-2.54177 -5.77454,-2.47837zM44.8,52.26667c-8.16154,0 -14.93333,6.7718 -14.93333,14.93333v112c0,8.16154 6.7718,14.93333 14.93333,14.93333h112c8.16154,0 14.93333,-6.7718 14.93333,-14.93333v-74.66667v-19.25l-14.93333,14.93333v19.25v59.73333h-112v-112h59.73333h14.93333h4.31667l14.93333,-14.93333h-19.25h-14.93333z"/></g></g></svg>
