<?xml version="1.0"?>
<svg xmlns="http://www.w3.org/2000/svg" xmlns:xlink="http://www.w3.org/1999/xlink" version="1.1" viewBox="0 0 224 224" width="30px" height="30px"><g fill="none" fill-rule="nonzero" stroke="none" stroke-width="1" stroke-linecap="butt" stroke-linejoin="miter" stroke-miterlimit="10" stroke-dasharray="" stroke-dashoffset="0" font-family="none" font-weight="none" font-size="none" text-anchor="none" style="mix-blend-mode: normal"><path d="M0,224v-224h224v224z" fill="none"/><g fill="#ffffff"><path d="M189.8624,24.8864c-1.41867,-1.58293 -3.44213,-2.4864 -5.56267,-2.4864h-144.59947c-2.12053,0 -4.144,0.90347 -5.56267,2.4864c-1.41867,1.58293 -2.09067,3.696 -1.8592,5.8016l16.4416,148.01173c0.32853,3.00907 2.45653,5.52533 5.36853,6.35413l55.85067,15.95627c0.672,0.19413 1.3664,0.2912 2.05333,0.2912c0.68693,0 1.38133,-0.09707 2.05333,-0.2912l55.85067,-15.95627c2.912,-0.8288 5.03253,-3.34507 5.36853,-6.35413l16.44907,-148.01173c0.23893,-2.1056 -0.43307,-4.21867 -1.85173,-5.8016zM153.18613,97.6192l-3.33013,54.39467l-37.61707,12.2976l-37.61707,-12.2976l-1.42613,-26.01387h19.04l0.47787,11.8272l19.52533,6.62293l19.52533,-6.62293l1.42613,-21.28h-41.90293l-0.94827,-18.92053h43.80693l1.42613,-18.92053h-65.71413l-1.42613,-18.928h87.136z"/></g></g></svg>
