<?xml version="1.0"?>
<svg xmlns="http://www.w3.org/2000/svg" xmlns:xlink="http://www.w3.org/1999/xlink" version="1.1" viewBox="0 0 224 224" width="30px" height="30px"><g fill="none" fill-rule="nonzero" stroke="none" stroke-width="1" stroke-linecap="butt" stroke-linejoin="miter" stroke-miterlimit="10" stroke-dasharray="" stroke-dashoffset="0" font-family="none" font-weight="none" font-size="none" text-anchor="none" style="mix-blend-mode: normal"><path d="M0,224v-224h224v224z" fill="none"/><g fill="#ffffff"><path d="M131.87708,-0.11667c11.40907,22.98987 -40.85083,37.1763 -45.70416,56.32083c-4.44267,17.59147 31.02516,38.03333 31.0625,38.03333c-5.39093,-7.27253 -9.28667,-13.28227 -14.7,-24.61667c-9.15413,-19.16693 54.01153,-38.94497 29.34166,-69.7375zM169.6625,31.33958c0,0 -39.84493,2.4059 -41.88333,26.6875c-0.90347,10.81173 10.4706,16.58638 10.79167,24.45625c0.27627,6.4288 -6.79583,11.76875 -6.79583,11.76875c0,0 11.66748,-1.79002 15.67708,-11.59375c4.4352,-10.87146 -7.46865,-18.80515 -6.13959,-27.51875c1.26933,-8.3328 28.35,-23.8 28.35,-23.8zM95.2875,94.25208c0,0 -40.95,-0.54413 -40.95,10.85c-0.00747,11.90933 53.6151,12.74233 91.90417,5.425c0,0 8.68629,-4.75976 11.40416,-7.32083c-25.088,5.02507 -80.83542,3.57303 -80.83542,-0.7875c0,-4.01707 18.47709,-8.16667 18.47709,-8.16667zM176.82292,94.55833c-4.4986,-0.18865 -9.42259,1.24332 -13.66459,4.27292c8.86294,-1.91893 16.33334,3.53476 16.33333,9.82916c0,14.14187 -20.31458,27.53333 -20.31458,27.53333c0,0 31.45625,-3.61841 31.45625,-26.87708c0,-9.604 -6.31276,-14.44392 -13.81041,-14.75834zM80.7625,115.22292c-6.4064,-0.00747 -15.93958,5.07721 -15.93958,9.96041c0,9.82613 48.19301,17.39885 83.86875,3.04792l-12.35208,-7.77292c-24.18453,7.93707 -68.77815,5.38966 -55.57709,-5.23541zM89.81875,136.17916c-8.8032,0 -14.51041,5.92142 -14.51041,10.25208c0,13.41013 52.55133,13.86747 73.38333,0.23333l-13.24166,-8.25417c-15.5456,7.13067 -54.62858,8.10262 -45.63125,-2.23125zM51.66875,156.72708c-12.5488,-0.39332 -18.30208,6.0186 -18.30208,11.25834c0,27.85067 136.29583,26.51623 136.29583,-1.95417c0,-4.7264 -5.26353,-6.9748 -7.175,-8.05c11.12533,27.216 -112.83125,25.35039 -112.83125,9.28959c0,-3.65867 6.56355,-7.3899 14.91875,-5.6875c0,0 -3.06262,-3.55647 -7.10208,-4.25834c-2.07293,-0.35747 -4.01148,-0.54172 -5.80417,-0.59792zM190.63333,177.66875c-21.63093,21.17547 -81.1769,34.03039 -136.29583,20.95625c55.38027,22.44481 136.0345,5.03522 136.29583,-20.95625z"/></g></g></svg>
