<?xml version="1.0"?>
<svg xmlns="http://www.w3.org/2000/svg" xmlns:xlink="http://www.w3.org/1999/xlink" version="1.1" viewBox="0 0 224 224" width="30px" height="30px"><g fill="none" fill-rule="nonzero" stroke="none" stroke-width="1" stroke-linecap="butt" stroke-linejoin="miter" stroke-miterlimit="10" stroke-dasharray="" stroke-dashoffset="0" font-family="none" font-weight="none" font-size="none" text-anchor="none" style="mix-blend-mode: normal"><path d="M0,224v-224h224v224z" fill="none"/><g fill="#ffffff"><path d="M97.06667,22.4c-16.49387,0 -29.86667,13.3728 -29.86667,29.86667v7.46667h37.33333c4.1216,0 7.46667,3.34507 7.46667,7.46667c0,4.1216 -3.34507,7.46667 -7.46667,7.46667h-37.33333h-7.46667h-7.46667c-16.49387,0 -29.86667,13.3728 -29.86667,29.86667v29.86667c0,16.49387 13.3728,29.86667 29.86667,29.86667h7.46667v-37.33333c0,-12.34987 10.05013,-22.4 22.4,-22.4h59.73333c4.1216,0 7.46667,-3.34507 7.46667,-7.46667v-44.8c0,-16.49387 -13.3728,-29.86667 -29.86667,-29.86667zM89.6,37.33333c4.1216,0 7.46667,3.34507 7.46667,7.46667c0,4.1216 -3.34507,7.46667 -7.46667,7.46667c-4.1216,0 -7.46667,-3.34507 -7.46667,-7.46667c0,-4.1216 3.34507,-7.46667 7.46667,-7.46667zM164.26667,59.73333v37.33333c0,12.34987 -10.05013,22.4 -22.4,22.4h-59.73333c-4.1216,0 -7.46667,3.34507 -7.46667,7.46667v44.8c0,16.49387 13.3728,29.86667 29.86667,29.86667h22.4c16.49387,0 29.86667,-13.3728 29.86667,-29.86667v-7.46667h-37.33333c-4.1216,0 -7.46667,-3.34507 -7.46667,-7.46667c0,-4.1216 3.34507,-7.46667 7.46667,-7.46667h37.33333h7.46667h7.46667c16.49387,0 29.86667,-13.3728 29.86667,-29.86667v-29.86667c0,-16.49387 -13.3728,-29.86667 -29.86667,-29.86667zM134.4,171.73333c4.1216,0 7.46667,3.34507 7.46667,7.46667c0,4.1216 -3.34507,7.46667 -7.46667,7.46667c-4.1216,0 -7.46667,-3.34507 -7.46667,-7.46667c0,-4.1216 3.34507,-7.46667 7.46667,-7.46667z"/></g></g></svg>
